<?xml version="1.0" encoding="UTF-8" standalone="no"?>
<!DOCTYPE svg PUBLIC "-//W3C//DTD SVG 1.1//EN" "http://www.w3.org/Graphics/SVG/1.1/DTD/svg11.dtd">
<svg width="100%" height="100%" viewBox="0 0 800 800" version="1.1" xmlns="http://www.w3.org/2000/svg" xmlns:xlink="http://www.w3.org/1999/xlink" xml:space="preserve" xmlns:serif="http://www.serif.com/" style="fill-rule:evenodd;clip-rule:evenodd;stroke-linejoin:round;stroke-miterlimit:2;">
    <g transform="matrix(1,0,0,1,5.68434e-14,-12.0598)">
        <g transform="matrix(1,0,0,1,-1.0485,-44)">
            <g transform="matrix(0.968853,-0.247635,0.247635,0.968853,-125.548,233.393)">
                <path d="M369.279,277.097L326.655,277.097L323.487,283.289L298.431,283.289L348.831,184.361L399.231,283.289L372.591,283.289L369.279,277.097ZM357.615,254.057L347.967,230.585L338.463,254.057L357.615,254.057Z"/>
            </g>
            <g transform="matrix(0.973248,0.229758,-0.229758,0.973248,99.3141,2.61074)">
                <path d="M372.591,240.665C371.055,242.105 369.471,243.377 367.839,244.481C366.207,245.585 364.431,246.521 362.511,247.289L381.087,283.433L354.303,283.433L337.167,250.025L329.103,250.025L329.103,283.289L305.343,283.289L305.343,184.361L350.271,184.361C354.495,184.553 358.503,185.417 362.295,186.953C366.087,188.489 369.471,190.745 372.447,193.721C378.975,200.249 382.239,208.073 382.239,217.193C382.239,221.609 381.399,225.833 379.719,229.865C378.039,233.897 375.663,237.497 372.591,240.665ZM329.103,226.985L349.119,226.985C351.711,226.985 353.919,226.001 355.743,224.033C357.567,222.065 358.479,219.785 358.479,217.193C358.479,214.601 357.567,212.321 355.743,210.353C353.919,208.385 351.711,207.401 349.119,207.401L329.103,207.401L329.103,226.985Z"/>
            </g>
            <g transform="matrix(1,0,0,1,162.996,109.745)">
                <path d="M403.263,233.897C403.263,240.905 401.943,247.481 399.303,253.625C396.663,259.769 393.039,265.121 388.431,269.681C383.823,274.241 378.447,277.841 372.303,280.481C366.159,283.121 359.583,284.441 352.575,284.441C345.567,284.441 338.991,283.121 332.847,280.481C326.703,277.841 321.327,274.241 316.719,269.681C312.111,265.121 308.487,259.769 305.847,253.625C303.207,247.481 301.887,240.905 301.887,233.897C301.887,226.889 303.207,220.313 305.847,214.169C308.487,208.025 312.111,202.649 316.719,198.041C321.327,193.433 326.703,189.809 332.847,187.169C338.991,184.529 345.567,183.209 352.575,183.209C359.583,183.209 366.159,184.529 372.303,187.169C378.447,189.809 383.823,193.433 388.431,198.041C393.039,202.649 396.663,208.025 399.303,214.169C401.943,220.313 403.263,226.889 403.263,233.897ZM372.159,253.337C374.751,250.745 376.623,247.769 377.775,244.409C378.927,241.049 379.503,237.545 379.503,233.897C379.503,230.153 378.927,226.601 377.775,223.241C376.623,219.881 374.751,216.905 372.159,214.313C369.471,211.721 366.447,209.729 363.087,208.337C359.727,206.945 356.223,206.249 352.575,206.249C348.927,206.249 345.423,206.945 342.063,208.337C338.703,209.729 335.679,211.721 332.991,214.313C330.399,216.905 328.527,219.881 327.375,223.241C326.223,226.601 325.647,230.153 325.647,233.897C325.647,237.545 326.223,241.049 327.375,244.409C328.527,247.769 330.399,250.745 332.991,253.337C335.679,255.929 338.703,257.921 342.063,259.313C345.423,260.705 348.927,261.401 352.575,261.401C356.223,261.401 359.727,260.705 363.087,259.313C366.447,257.921 369.471,255.929 372.159,253.337Z"/>
            </g>
            <g transform="matrix(0.949336,-0.314263,0.314263,0.949336,-54.9541,374.827)">
                <path d="M409.023,283.289L385.263,283.289L385.263,233.033L357.183,284.441L329.103,233.033L329.103,283.289L305.343,283.289L305.343,184.361L330.831,184.361L357.183,232.457L383.391,184.361L409.023,184.361L409.023,283.289Z"/>
            </g>
            <g transform="matrix(0.985319,0.170726,-0.170726,0.985319,194.254,180.098)">
                <path d="M369.279,277.097L326.655,277.097L323.487,283.289L298.431,283.289L348.831,184.361L399.231,283.289L372.591,283.289L369.279,277.097ZM357.615,254.057L347.967,230.585L338.463,254.057L357.615,254.057Z"/>
            </g>
            <g transform="matrix(1,0,0,1,79.5707,97.9541)">
                <rect x="203" y="186" width="18" height="18"/>
            </g>
            <g transform="matrix(0.656932,-0.219816,0.219816,0.656932,261.084,258)">
                <rect x="203" y="186" width="18" height="18"/>
            </g>
            <g transform="matrix(0.833132,0.231147,-0.231147,0.833132,120.93,298.784)">
                <rect x="203" y="186" width="18" height="18"/>
            </g>
            <g transform="matrix(1.17272,0.325363,-0.325363,1.17272,370.115,153.391)">
                <rect x="203" y="186" width="18" height="18"/>
            </g>
            <g transform="matrix(0.78124,0,0,0.78124,46.1584,77.0036)">
                <path d="M219,336.001L226.999,352L211,352L219,336.001Z"/>
            </g>
            <g transform="matrix(-0.739306,0.44599,-0.44599,-0.739306,674.401,548.216)">
                <path d="M219,336.001L226.999,352L211,352L219,336.001Z"/>
            </g>
            <g transform="matrix(0.401316,0.711056,-0.711056,0.401316,594.635,162.571)">
                <path d="M219,336.001L226.999,352L211,352L219,336.001Z"/>
            </g>
            <g transform="matrix(0.972053,0.23476,-0.23476,0.972053,453.077,-36.3421)">
                <path d="M219,336.001L226.999,352L211,352L219,336.001Z"/>
            </g>
            <g transform="matrix(0.623286,0,0,0.623286,354.366,203.087)">
                <path d="M129.026,325.629L136.659,331.175L133.744,340.148L124.308,340.148L121.393,331.175L129.026,325.629Z"/>
            </g>
            <g transform="matrix(1,0,0,1,341.524,-57.8002)">
                <path d="M129.026,325.629L136.659,331.175L133.744,340.148L124.308,340.148L121.393,331.175L129.026,325.629Z"/>
            </g>
            <g transform="matrix(0.75081,0,0,0.75081,469.895,158.302)">
                <path d="M129.026,325.629L136.659,331.175L133.744,340.148L124.308,340.148L121.393,331.175L129.026,325.629Z"/>
            </g>
        </g>
        <g transform="matrix(-0.945969,-0.324257,0.354248,-1.03346,474.872,1367.29)">
            <path d="M430,673C430,673 261.253,688.528 250,673C237.5,655.752 268.368,631.283 313,640.906C313,640.906 363.759,649.747 416,646.741L416,619L445,619C603.944,616.884 648,673 648,673L430,673Z"/>
        </g>
        <g transform="matrix(0.945969,-0.324257,-0.354248,-1.03346,325.128,1367.29)">
            <path d="M430,673C430,673 261.253,688.528 250,673C237.5,655.752 268.368,631.283 313,640.906C313,640.906 363.759,649.747 416,646.741L416,619L445,619C603.944,616.884 648,673 648,673L430,673Z"/>
        </g>
    </g>
</svg>
