<?xml version="1.0" encoding="UTF-8" standalone="no"?>
<!DOCTYPE svg PUBLIC "-//W3C//DTD SVG 1.1//EN" "http://www.w3.org/Graphics/SVG/1.1/DTD/svg11.dtd">
<svg width="100%" height="100%" viewBox="0 0 316 311" version="1.1" xmlns="http://www.w3.org/2000/svg" xmlns:xlink="http://www.w3.org/1999/xlink" xml:space="preserve" xmlns:serif="http://www.serif.com/" style="fill-rule:evenodd;clip-rule:evenodd;stroke-linejoin:round;stroke-miterlimit:2;">
    <g id="Artboard1" transform="matrix(0.306499,0,0,0.507341,112.485,36.0212)">
        <rect x="-367" y="-71" width="1031" height="613" style="fill:none;"/>
        <g transform="matrix(2.15338,0,0,1.53301,376.572,-257.25)" style="fill:#fee6a7;">
            <path d="M-110.401,303.361C-130.068,304.282 -150.097,298.373 -165.107,285.636C-181.147,272.024 -187.997,253.549 -185.658,235.783C-164.722,233.798 -142.95,239.611 -126.91,253.222C-119.384,259.609 -113.88,267.068 -110.401,275.021L-110.401,263.075C-123.962,251.997 -132.405,236.438 -132.405,219.219C-132.405,199.97 -121.854,182.796 -105.396,171.637C-88.938,182.796 -78.387,199.97 -78.387,219.219C-78.387,236.438 -86.83,251.997 -100.391,263.075L-100.391,286.337C-96.894,279.22 -91.736,272.554 -84.916,266.767C-68.877,253.156 -47.105,247.343 -26.169,249.328C-23.83,267.094 -30.68,285.57 -46.72,299.181C-61.466,311.695 -81.058,317.617 -100.391,316.948L-100.391,347.065C-96.894,339.949 -91.736,333.282 -84.916,327.496C-68.877,313.884 -47.105,308.071 -26.169,310.057C-23.83,327.823 -30.68,346.298 -46.72,359.909C-61.466,372.424 -81.058,378.346 -100.391,377.676L-100.391,409.692C-96.894,402.575 -91.736,395.909 -84.916,390.122C-68.877,376.511 -47.105,370.698 -26.169,372.683C-23.83,390.449 -30.68,408.924 -46.72,422.536C-61.466,435.05 -81.058,440.972 -100.391,440.303L-100.391,471.215L-110.401,471.215L-110.401,426.715C-130.068,427.636 -150.097,421.728 -165.107,408.99C-181.147,395.379 -187.997,376.904 -185.658,359.138C-164.722,357.152 -142.95,362.965 -126.91,376.577C-119.384,382.964 -113.88,390.422 -110.401,398.376L-110.401,364.089C-130.068,365.01 -150.097,359.102 -165.107,346.364C-181.147,332.753 -187.997,314.278 -185.658,296.512C-164.722,294.526 -142.95,300.339 -126.91,313.95C-119.384,320.338 -113.88,327.796 -110.401,335.75L-110.401,303.361Z"/>
        </g>
    </g>
</svg>
