<?xml version="1.0" encoding="UTF-8" standalone="no"?>
<!DOCTYPE svg PUBLIC "-//W3C//DTD SVG 1.1//EN" "http://www.w3.org/Graphics/SVG/1.1/DTD/svg11.dtd">
<svg width="100%" height="100%" viewBox="0 0 316 311" version="1.1" xmlns="http://www.w3.org/2000/svg" xmlns:xlink="http://www.w3.org/1999/xlink" xml:space="preserve" xmlns:serif="http://www.serif.com/" style="fill-rule:evenodd;clip-rule:evenodd;stroke-linejoin:round;stroke-miterlimit:2;">
    <g id="Artboard1" transform="matrix(0.306499,0,0,0.507341,112.485,36.0212)">
        <rect x="-367" y="-71" width="1031" height="613" style="fill:none;"/>
        <g transform="matrix(1.9557,0,0,1.39228,355.634,-214.588)" style="fill:#fee6a7;">
            <path d="M-105.913,111.916C31.55,111.916 143.153,206.622 143.153,323.274C143.153,439.925 31.55,534.631 -105.913,534.631C-243.377,534.631 -354.98,439.925 -354.98,323.274C-354.98,206.622 -243.377,111.916 -105.913,111.916ZM18.73,180.183C-16.124,158.274 -59.249,145.312 -105.913,145.312C-221.657,145.312 -315.625,225.054 -315.625,323.274C-315.625,362.873 -300.351,399.469 -274.534,429.046L-205.026,370.062C-203.879,388.389 -195.06,406.434 -178.577,420.421C-178.077,420.846 -177.572,421.265 -177.063,421.677L-230.077,466.665C-195.307,488.392 -152.364,501.235 -105.913,501.235C9.83,501.235 103.799,421.493 103.799,323.274C103.799,283.856 88.664,247.414 63.061,217.908L-11.618,281.281C-7.207,270.405 -5.746,258.855 -7.237,247.533C-8.226,240.026 -15.208,234.101 -24.054,233.263C-30.599,232.642 -37.208,232.624 -43.757,233.209L18.73,180.183ZM-110.401,303.361C-130.068,304.282 -150.097,298.373 -165.107,285.636C-181.147,272.024 -187.997,253.549 -185.658,235.783C-164.722,233.798 -142.95,239.611 -126.91,253.222C-119.384,259.609 -113.88,267.068 -110.401,275.021L-110.401,263.075C-123.962,251.997 -132.405,236.438 -132.405,219.219C-132.405,199.97 -121.854,182.796 -105.396,171.637C-88.938,182.796 -78.387,199.97 -78.387,219.219C-78.387,236.438 -86.83,251.997 -100.391,263.075L-100.391,286.337C-96.894,279.22 -91.736,272.554 -84.916,266.767C-68.877,253.156 -47.105,247.343 -26.169,249.328C-23.83,267.094 -30.68,285.57 -46.72,299.181C-61.466,311.695 -81.058,317.617 -100.391,316.948L-100.391,347.065C-96.894,339.949 -91.736,333.282 -84.916,327.496C-68.877,313.884 -47.105,308.071 -26.169,310.057C-23.83,327.823 -30.68,346.298 -46.72,359.909C-61.466,372.424 -81.058,378.346 -100.391,377.676L-100.391,409.692C-96.894,402.575 -91.736,395.909 -84.916,390.122C-68.877,376.511 -47.105,370.698 -26.169,372.683C-23.83,390.449 -30.68,408.924 -46.72,422.536C-61.466,435.05 -81.058,440.972 -100.391,440.303L-100.391,471.215L-110.401,471.215L-110.401,426.715C-130.068,427.636 -150.097,421.728 -165.107,408.99C-181.147,395.379 -187.997,376.904 -185.658,359.138C-164.722,357.152 -142.95,362.965 -126.91,376.577C-119.384,382.964 -113.88,390.422 -110.401,398.376L-110.401,364.089C-130.068,365.01 -150.097,359.102 -165.107,346.364C-181.147,332.753 -187.997,314.278 -185.658,296.512C-164.722,294.526 -142.95,300.339 -126.91,313.95C-119.384,320.338 -113.88,327.796 -110.401,335.75L-110.401,303.361Z"/>
        </g>
    </g>
</svg>
