<svg width="114" height="24" viewBox="0 0 114 24" fill="none" xmlns="http://www.w3.org/2000/svg">
<path d="M7.2219 23.1455H2.92627V11.9828H0V8.34848H2.92615V5.76239C2.92615 2.69786 4.22039 0.5 8.5044 0.5C9.41047 0.5 10.833 0.690374 10.833 0.690374V4.06506H9.33888C7.81652 4.06506 7.22213 4.54777 7.22213 5.88229V8.34848H10.776L10.4595 11.9828H7.22201L7.2219 23.1455ZM17.0783 8.05805C17.0158 8.05805 16.9513 8.06043 16.8876 8.06209C12.9045 8.06209 11.0821 11.1853 11.0821 15.6188C11.0821 21.2039 13.446 23.4392 16.9187 23.4392C18.9056 23.4392 20.2111 22.5674 21.0045 20.9405V23.1471H25.0903V8.35003H21.0045V10.6256C20.3566 9.16156 19.0147 8.0754 17.0783 8.05805ZM18.1172 11.5545C19.7902 11.5545 20.7943 12.7709 20.7943 14.84L20.7982 16.9532C20.7982 18.3478 19.9688 19.9793 18.1172 19.9793C15.2706 19.9793 15.3467 16.7752 15.3467 15.7081C15.3467 12.1184 16.8633 11.5545 18.1172 11.5545ZM26.7403 15.7493C26.7403 13.9512 26.6578 8.06768 34.0112 8.06768C36.963 8.06768 38.1956 9.04605 38.1956 9.04605L37.2049 12.249C37.2049 12.249 35.974 11.5424 34.37 11.5424C32.3156 11.5424 31.0047 12.7839 31.0047 14.9682L31.007 16.5345C31.007 18.6333 32.2718 20.0344 34.3742 20.0344C35.8354 20.0344 37.1822 19.3212 37.1822 19.3212L38.1704 22.4572C38.1704 22.4572 37.0434 23.4418 34.0318 23.4418C27.0302 23.4418 26.7404 18.1631 26.7404 15.7493H26.7403ZM62.1519 8.06209C66.1352 8.06209 67.9863 11.1853 67.9863 15.6188C67.9863 21.2039 65.6223 23.4392 62.1495 23.4392C60.1626 23.4392 58.6938 22.5675 57.9004 20.9405V23.1471L53.866 23.1454V0.949911L58.1495 0.560487V10.4251C58.7677 8.69929 60.7993 8.06209 62.1519 8.06209ZM60.951 11.5545C59.2781 11.5545 58.1495 12.7709 58.1495 14.84L58.1455 16.9532C58.143 18.3478 58.9271 19.9793 60.951 19.9793C63.7976 19.9793 63.7216 16.7752 63.7216 15.7081C63.7216 12.1184 62.205 11.5545 60.951 11.5545ZM45.6277 8.07433C41.1099 8.07433 38.7248 10.642 38.7248 15.205V16.0528C38.7248 21.9752 42.0742 23.5 46.0674 23.5C49.9488 23.5 51.7056 22.3683 51.7056 22.3683L50.9041 19.3547C50.9041 19.3547 48.8375 20.2712 46.581 20.2712C44.2417 20.2712 43.2356 19.6497 42.9778 17.3063H52.0481V14.8886C52.0481 9.93886 49.3712 8.07421 45.6276 8.07421L45.6277 8.07433ZM45.7366 11.092C47.3004 11.092 48.3138 12.0917 48.2581 14.41H42.9856C43.0771 11.97 44.1699 11.092 45.7366 11.092ZM76.5273 8.05401C71.8878 8.05401 69.4454 10.7794 69.4454 15.6634C69.4454 22.3645 73.6556 23.4432 76.535 23.4432C80.7503 23.4432 83.5547 21.0775 83.5547 15.7242C83.5547 10.1524 80.4015 8.05401 76.5273 8.05401ZM76.4689 11.5667C78.509 11.5667 79.3173 13.1582 79.3173 14.9699V16.5275C79.3173 18.7221 78.1862 19.9915 76.4612 19.9915C74.8478 19.9915 73.714 18.8041 73.714 16.5275V14.9699C73.714 12.5418 75.0632 11.5667 76.4689 11.5667ZM92.0881 8.05401C87.4486 8.05401 85.0062 10.7794 85.0062 15.6634C85.0062 22.3645 89.2164 23.4432 92.0958 23.4432C96.311 23.4432 99.1155 21.0775 99.1155 15.7242C99.1155 10.1524 95.9621 8.05401 92.0881 8.05401ZM92.0297 11.5667C94.0697 11.5667 94.878 13.1582 94.878 14.9699V16.5275C94.878 18.7221 93.7469 19.9915 92.0219 19.9915C90.4086 19.9915 89.2748 18.8041 89.2748 16.5275V14.9699C89.2748 12.5418 90.624 11.5667 92.0297 11.5667ZM100.734 23.1455V0.949911L105.03 0.560487V15.4374L109.292 8.34848H113.829L109.383 15.6905L114 23.1455H109.45L105.03 15.9068V23.1455H100.734Z" fill="#1877F2"/>
</svg>
